# Blender v2.90.0 OBJ File: 'cube.blend'
# www.blender.org
mtllib cube.mtl
o Cube
v 1.000000 1.000000 -1.000000
v 1.000000 -1.000000 -1.000000
v 1.000000 -1.000000 1.000000
v -1.000000 -1.000000 -1.000000
v -1.000000 -1.000000 1.000000
v 1.000000 1.000000 0.629467
v 1.000000 0.629467 1.000000
v -1.000000 0.667312 -1.000000
v -0.667312 1.000000 -1.000000
v -0.667312 0.629467 1.000000
v -1.000000 0.158974 1.000000
v -1.000000 0.667312 0.491663
v -0.667312 1.000000 0.629467
vt 0.625000 0.750000
vt 0.625000 0.958414
vt 0.578683 0.958414
vt 0.578683 0.750000
vt 0.375000 0.000000
vt 0.519872 0.000000
vt 0.583414 0.063542
vt 0.583414 0.250000
vt 0.375000 0.250000
vt 0.125000 0.500000
vt 0.375000 0.500000
vt 0.375000 0.750000
vt 0.125000 0.750000
vt 0.625000 0.500000
vt 0.833414 0.500000
vt 0.833414 0.703683
vt 0.625000 0.703683
vt 0.519872 1.000000
vt 0.375000 1.000000
vt 0.578683 0.000000
vt 0.625000 0.046317
vt 0.625000 0.250000
vt 0.625000 0.291586
vn 0.0000 0.7071 0.7071
vn -1.0000 0.0000 0.0000
vn 0.0000 -1.0000 0.0000
vn 0.0000 1.0000 0.0000
vn 0.0000 0.0000 1.0000
vn 1.0000 -0.0000 -0.0000
vn -0.7071 0.5000 0.5000
vn -0.7071 0.7071 0.0000
vn -0.0000 0.0000 -1.0000
usemtl Material
s off
f 6/1/1 13/2/1 10/3/1 7/4/1
f 5/5/2 11/6/2 12/7/2 8/8/2 4/9/2
f 4/10/3 2/11/3 3/12/3 5/13/3
f 1/14/4 9/15/4 13/16/4 6/17/4
f 3/12/5 7/4/5 10/3/5 11/18/5 5/19/5
f 2/11/6 1/14/6 6/17/6 7/4/6 3/12/6
f 12/7/7 11/6/7 10/20/7 13/21/7
f 8/8/8 12/7/8 13/21/8 9/22/8
f 4/9/9 8/8/9 9/23/9 1/14/9 2/11/9
