# Blender v2.90.1 OBJ File: 'hexatile.blend'
# www.blender.org
mtllib hexatile.mtl
o Hexatile_Hexatile.001
v 0.471132 0.000000 -0.816025
v 0.500000 -0.050000 -0.866025
v 0.471132 0.000000 0.816025
v 0.500000 -0.050000 0.866025
v -0.471132 0.000000 -0.816025
v -0.500000 -0.050000 -0.866025
v -0.471132 0.000000 0.816025
v -0.500000 -0.050000 0.866025
v 1.000000 -0.050000 0.000000
v 0.942265 0.000000 -0.000000
v -1.000000 -0.050000 0.000000
v -0.942265 0.000000 0.000000
v 0.471132 -0.500000 -0.816025
v 0.500000 -0.450000 -0.866025
v 0.471132 -0.500000 0.816025
v 0.500000 -0.450000 0.866025
v -0.471132 -0.500000 -0.816025
v -0.500000 -0.450000 -0.866025
v -0.500000 -0.450000 0.866025
v -0.471132 -0.500000 0.816025
v 1.000000 -0.450000 0.000000
v 0.942265 -0.500000 0.000000
v -1.000000 -0.450000 0.000000
v -0.942265 -0.500000 -0.000000
vt 0.400000 0.125000
vt 0.600000 0.125000
vt 0.600000 0.250000
vt 0.400000 0.250000
vt 0.400000 0.500000
vt 0.600000 0.500000
vt 0.600000 0.625000
vt 0.400000 0.625000
vt 0.635549 0.507217
vt 0.864451 0.507217
vt 0.871116 0.625000
vt 0.864451 0.742783
vt 0.635549 0.742783
vt 0.628884 0.625000
vt 0.400000 0.750000
vt 0.600000 0.750000
vt 0.600000 1.000000
vt 0.400000 1.000000
vt 0.875000 0.500000
vt 0.875000 0.625000
vt 0.625000 0.500000
vt 0.875000 0.750000
vt 0.625000 0.750000
vt 0.135549 0.507217
vt 0.364451 0.507217
vt 0.371116 0.625000
vt 0.364451 0.742783
vt 0.135549 0.742783
vt 0.128884 0.625000
vt 0.125000 0.750000
vt 0.125000 0.625000
vt 0.125000 0.500000
vt 0.375000 0.500000
vt 0.375000 0.750000
vt 0.400000 0.000000
vt 0.600000 0.000000
vn 0.8660 0.0000 0.5000
vn -0.8660 0.0000 0.5000
vn 0.0000 1.0000 0.0000
vn 0.0000 0.0000 -1.0000
vn -0.8660 0.0000 -0.5000
vn 0.0000 0.0000 1.0000
vn 0.6124 0.7071 0.3536
vn 0.0000 0.7071 0.7071
vn -0.6124 0.7071 -0.3536
vn 0.0000 0.7071 -0.7071
vn 0.6124 0.7071 -0.3536
vn -0.6124 0.7071 0.3536
vn 0.0000 -1.0000 0.0000
vn 0.6124 -0.7071 -0.3536
vn 0.0000 -0.7071 0.7071
vn -0.6124 -0.7071 0.3536
vn 0.0000 -0.7071 -0.7071
vn 0.6124 -0.7071 0.3536
vn -0.6124 -0.7071 -0.3536
vn 0.8660 0.0000 -0.5000
usemtl Material.001
s off
f 21/1/1 9/2/1 4/3/1 16/4/1
f 19/5/2 8/6/2 11/7/2 23/8/2
f 7/9/3 3/10/3 10/11/3 1/12/3 5/13/3 12/14/3
f 18/15/4 6/16/4 2/17/4 14/18/4
f 23/8/5 11/7/5 6/16/5 18/15/5
f 16/4/6 4/3/6 8/6/6 19/5/6
f 10/11/7 3/10/7 4/19/7 9/20/7
f 3/10/8 7/9/8 8/21/8 4/19/8
f 12/14/9 5/13/9 6/16/9 11/7/9
f 5/13/10 1/12/10 2/22/10 6/23/10
f 1/12/11 10/11/11 9/20/11 2/22/11
f 7/9/12 12/14/12 11/7/12 8/6/12
f 15/24/13 20/25/13 24/26/13 17/27/13 13/28/13 22/29/13
f 22/29/14 13/28/14 14/30/14 21/31/14
f 20/25/15 15/24/15 16/32/15 19/33/15
f 24/26/16 20/25/16 19/5/16 23/8/16
f 13/28/17 17/27/17 18/34/17 14/30/17
f 15/24/18 22/29/18 21/31/18 16/32/18
f 17/27/19 24/26/19 23/8/19 18/15/19
f 14/35/20 2/36/20 9/2/20 21/1/20
